<?xml version="1.0" encoding="UTF-8" standalone="no"?>
<svg
   xmlns:dc="http://purl.org/dc/elements/1.1/"
   xmlns:cc="http://creativecommons.org/ns#"
   xmlns:rdf="http://www.w3.org/1999/02/22-rdf-syntax-ns#"
   xmlns:svg="http://www.w3.org/2000/svg"
   xmlns="http://www.w3.org/2000/svg"
   xmlns:sodipodi="http://sodipodi.sourceforge.net/DTD/sodipodi-0.dtd"
   xmlns:inkscape="http://www.inkscape.org/namespaces/inkscape"
   viewBox="0 0 18 18"
   data-islogo="true"
   class=""
   role="presentation"
   focusable="false"
   id="FxSymbol0-026"
   data-type="337"
   version="1.1"
   sodipodi:docname="logo.svg"
   inkscape:version="0.92.4 (5da689c313, 2019-01-14)">
  <metadata
     id="metadata3779">
    <rdf:RDF>
      <cc:Work
         rdf:about="">
        <dc:format>image/svg+xml</dc:format>
        <dc:type
           rdf:resource="http://purl.org/dc/dcmitype/StillImage" />
        <dc:title></dc:title>
      </cc:Work>
    </rdf:RDF>
  </metadata>
  <defs
     id="defs3777" />
  <sodipodi:namedview
     pagecolor="#ffffff"
     bordercolor="#666666"
     borderopacity="1"
     objecttolerance="10"
     gridtolerance="10"
     guidetolerance="10"
     inkscape:pageopacity="0"
     inkscape:pageshadow="2"
     inkscape:window-width="454"
     inkscape:window-height="405"
     id="namedview3775"
     showgrid="false"
     inkscape:zoom="47.111111"
     inkscape:cx="9"
     inkscape:cy="9"
     inkscape:window-x="2494"
     inkscape:window-y="293"
     inkscape:window-maximized="0"
     inkscape:current-layer="FxSymbol0-026" />
  <g
     id="g3772">
    <title
       id="title3747" />
    <defs
       id="defs3760">
      <linearGradient
         id="716486ba-07a5-4178-9c6a-cec856341a7a"
         x1="-26.319"
         y1="-296.201"
         x2="-26.319"
         y2="-311.705"
         gradientTransform="matrix(1.156 0 0 1.029 39.425 321.61)"
         gradientUnits="userSpaceOnUse">
        <stop
           offset="0"
           stop-color="#fea11b"
           id="stop3749" />
        <stop
           offset=".284"
           stop-color="#fea51a"
           id="stop3751" />
        <stop
           offset=".547"
           stop-color="#feb018"
           id="stop3753" />
        <stop
           offset=".8"
           stop-color="#ffc314"
           id="stop3755" />
        <stop
           offset="1"
           stop-color="#ffd70f"
           id="stop3757" />
      </linearGradient>
    </defs>
    <path
       d="M5.5 13.1l-.6.6a.3.3 0 0 1-.4 0L.2 9.4a.608.608 0 0 1 0-.8L.7 8l4.8 4.8a.188.188 0 0 1 0 .3z"
       fill="#50e6ff"
       id="path3762" />
    <path
       d="M4.8 4.3l.6.6a.3.3 0 0 1 0 .4L.8 9.9l-.6-.6a.6.6 0 0 1 0-.8l4.3-4.3a.367.367 0 0 1 .3.1z"
       fill="#1490df"
       id="path3764" />
    <path
       d="M17.3 8l.6.6a.608.608 0 0 1 0 .8l-4.4 4.4a.3.3 0 0 1-.4 0l-.6-.6a.3.3 0 0 1 0-.4L17.3 8z"
       fill="#50e6ff"
       id="path3766" />
    <path
       d="M17.8 9.3l-.6.6-4.7-4.7a.3.3 0 0 1 0-.4l.6-.6a.3.3 0 0 1 .4 0l4.3 4.3a.6.6 0 0 1 0 .8z"
       fill="#1490df"
       id="path3768" />
    <path
       d="M8.3 9.9H4.7a.215.215 0 0 1-.2-.2v-.1l4.3-8.5c.1 0 .1-.1.2-.1h4.2a.215.215 0 0 1 .2.2v.1L8.4 8h4.9a.215.215 0 0 1 .2.2.1.1 0 0 1-.1.1l-8.2 8.5c-.1 0-.6.5-.4-.2z"
       fill="url(#716486ba-07a5-4178-9c6a-cec856341a7a)"
       id="path3770" />
  </g>
</svg>
